<svg width="30" height="30" version="1.1" viewBox="0 0 7.9375 7.9375" xmlns="http://www.w3.org/2000/svg">
 <g>
  <text x="10.583333" y="146.65475" fill="#000000" font-family="sans-serif" font-size="10.583px" stroke-width=".26458" style="line-height:1.25" xml:space="preserve"><tspan x="10.583333" y="146.65475" stroke-width=".26458"/></text>
  <text fill="#000000" font-family="sans-serif" font-size="10.583px" style="line-height:1.25;shape-inside:url(#rect16);white-space:pre" xml:space="preserve"><tspan x="45.357422" y="166.13789" visibility="hidden"><tspan dx="0 4.8058929 4.8058929 4.8058929 4.8058929 4.8058929 4.8058929 4.8058929 4.8058929 4.8058929 4.8058929 4.8058929 4.8058929 4.8058929 4.8058929 4.8058929 4.8058929 4.8058929 4.8058929 4.8058929 4.8058929 4.8058929 4.8058929 4.8058929 4.8058929 4.8058929 4.8058929 4.8058929 4.8058929 4.8058929 4.8058929 4.8058929 4.8058929 4.8058929 4.8058929 4.8058929 4.8058929">-------------------------------------</tspan></tspan></text>
  <g fill="black" font-family="sans-serif" font-size="10.583px">
   <text style="line-height:1.25;shape-inside:url(#rect22);white-space:pre" xml:space="preserve"/>
   <text style="line-height:1.25;shape-inside:url(#rect28);white-space:pre" xml:space="preserve"/>
   <text style="line-height:1.25;shape-inside:url(#rect34);white-space:pre" xml:space="preserve"/>
  </g>
  <path d="m40.832 196.89-.94568.93534-.81132-.81132-.74413-2.2221-.6873-.67696-.65629.33073q-.13952.30489-.35656.72864l-.53227.51676v-3.5553l.12919-.25321.25321-.51676.01034-.0103q.02067-.0155.05168-.0465t.07751-.0723l.2532-.25322.74931-.49609q.0517-.0362.14469-.0982.093-.0672.22738-.15502.0103-.005.20154-.10336.1912-.0982.57877-.28938l.80615.40307.39274.78031v1.1576q-.0724.15503-.17053.34623-.093.1912-.21187.42375l-.39274.39274q-.062.0258-.1757.0827-.11369.0568-.27905.13952l-.88884.44442.20154.093.40308.20154q.0207.0258.11885.12919.10335.10335.29456.29455.0568.10852.13952.25838.0827.1447.19637.32556l.74414 1.2351q.0672.0723.14986.15502.0827.0827.18604.18604zm-3.8447-7.2605-1.142 1.1317h-1.1627l-.72347-.36173-1.1731.58394 1.142-1.1317h1.1679l.7183.36174zm-1.8293 5.5139q-.07235.16537-.17053.35657-.09302.1912-.21187.41341-.10335.10335-.23771.23254-.12919.12919-.28939.28939v-2.3409h-.62528l-.48576.48576v-.97151l.42374-.42375h.6873v-.30489q.07235-.16536.16536-.35657.09302-.1912.21187-.41857.10335-.10336.23771-.22738.13436-.12919.29456-.28939zm3.0386 1.7983-.8785.87332-.78548-.38757h-1.08q-.13436.0362-.62012.1602-.48059.11885-1.3281.32556l1.018-.67696q.06718-.0465.1912-.12919.12919-.0878.31522-.20671l.76481-.25321q.01033-.005.05684-.0207.04651-.0207.12919-.062.09818-.0465.1912-.0465h.76482zm.86816-4.4338v-1.0697l-.3514-.69763-.66662-.34106-1.0387.69246v3.1522q.13953-.0568.47542-.25321.3359-.20154.86817-.5426l.36173-.23254z" fill="#007cff"/>
  <path d="m46.708 197.06h-.81649q-.031.0103-.12402.0362-.0879.0258-.23771.0775l-.72864.24288q-.13435.0723-.33589.17053-.19637.0982-.45992.22737l-.39791-.3979q-.27388-.12919-.71313-.35657h-1.08l1.018-.51159v-3.3435l.39274-.12402.76997-.25838.62529-.31523-1.8397-1.8397 1.2919-.85783.40307 1.1937 2.2324 2.2324zm-.9095-.14986v-3.2401l-1.0387-1.0335-1.018.67696v3.2349q.13436.062.31006.14986.18087.0879.39791.20153l.34106.3514z" fill="#007cff"/>
 </g>
</svg>
